<?xml version="1.0" encoding="utf-8"?>
<!-- Generator: Adobe Illustrator 22.0.1, SVG Export Plug-In . SVG Version: 6.00 Build 0)  -->
<svg version="1.1" id="Слой_1" xmlns="http://www.w3.org/2000/svg" xmlns:xlink="http://www.w3.org/1999/xlink" x="0px" y="0px"
	 viewBox="0 0 56.7 56.7" style="enable-background:new 0 0 56.7 56.7;" xml:space="preserve">
<style type="text/css">
	.st0{opacity:0.3;fill:#9DA7B0;}
	.st1{fill:#0E64ED;}
</style>
<g>
	<path class="st0" d="M20.3,14.6L20.3,14.6v11.6c0,4.4,3.6,8,8,8c4.4,0,8-3.6,8-8V14.6c0-4.4-3.6-8-8-8
		C23.9,6.5,20.3,10.1,20.3,14.6L20.3,14.6z M18.5,14.6c0-5.4,4.4-9.8,9.8-9.8c5.4,0,9.8,4.4,9.8,9.8v11.6c0,5.4-4.4,9.8-9.8,9.8
		c-5.4,0-9.8-4.4-9.8-9.8V14.6L18.5,14.6z"/>
	<path class="st1" d="M27.5,11.9c0-0.5,0.4-0.9,0.9-0.9c0.5,0,0.9,0.4,0.9,0.9v3.6c0,0.5-0.4,0.9-0.9,0.9c-0.5,0-0.9-0.4-0.9-0.9
		V11.9z"/>
	<path class="st1" d="M28.3,49.8l3.8-3.8c0.3-0.3,0.9-0.3,1.3,0c0.3,0.3,0.3,0.9,0,1.3L29,51.7c-0.2,0.2-0.4,0.3-0.6,0.3
		s-0.5-0.1-0.6-0.3l-4.5-4.5c-0.3-0.3-0.3-0.9,0-1.3c0.3-0.3,0.9-0.3,1.3,0L28.3,49.8z"/>
	<path class="st1" d="M28.3,44l3.8-3.8c0.3-0.3,0.9-0.3,1.3,0c0.3,0.3,0.3,0.9,0,1.3L29,45.9c-0.2,0.2-0.4,0.3-0.6,0.3
		s-0.5-0.1-0.6-0.3l-4.5-4.5c-0.3-0.3-0.3-0.9,0-1.3c0.3-0.3,0.9-0.3,1.3,0L28.3,44z"/>
</g>
</svg>
