<?xml version="1.0" encoding="utf-8"?>
<!-- Generator: Adobe Illustrator 22.0.1, SVG Export Plug-In . SVG Version: 6.00 Build 0)  -->
<svg version="1.1" id="Capa_1" xmlns="http://www.w3.org/2000/svg" xmlns:xlink="http://www.w3.org/1999/xlink" x="0px" y="0px"
	 viewBox="0 0 496 496" style="enable-background:new 0 0 496 496;" xml:space="preserve">
<style type="text/css">
	.st0{fill:#A3D2FF;}
	.st1{fill:#073277;}
</style>
<circle class="st0" cx="248" cy="136" r="104"/>
<path class="st1" d="M224,208h16v-16h16v16h16v-20.4c9.5-5.6,16-15.8,16-27.6c0-9.5-4.2-18.1-10.9-24c6.7-5.9,10.9-14.5,10.9-24
	c0-11.8-6.5-22-16-27.6V64h-16v16h-16V64h-16v16h-16v112h16V208z M224,96h32c8.8,0,16,7.2,16,16s-7.2,16-16,16h-32V96z M224,144h32
	c8.8,0,16,7.2,16,16s-7.2,16-16,16h-32V144z"/>
<path class="st1" d="M424,208h-60.8c13.1-20.9,20.8-45.5,20.8-72C384,61,323,0,248,0S112,61,112,136c0,26.5,7.7,51.1,20.8,72H72
	c-17.6,0-32,14.4-32,32v224c0,17.6,14.4,32,32,32h352c17.6,0,32-14.4,32-32V240C456,222.4,441.6,208,424,208z M248,16
	c66.2,0,120,53.8,120,120s-53.8,120-120,120s-120-53.8-120-120S181.8,16,248,16z M268.7,312l-16,16l16,16l-16,16l19.3,19.3v2.5
	L251.5,416h-6.9L224,381.8v-112c7.8,1.4,15.8,2.2,24,2.2c8.2,0,16.2-0.9,24-2.2v6.9L252.7,296L268.7,312z M72,224h72v-0.5
	c5,6,10.6,11.5,16.5,16.5H56C56,231.2,63.2,224,72,224z M424,480H72c-8.8,0-16-7.2-16-16h32v-16H56V256h128v-0.1
	c7.6,4.1,15.6,7.5,24,10v120.2l27.5,45.8h25.1l27.5-45.8v-13.5L275.3,360l16-16l-16-16l16-16l-16-16l12.7-12.7V266
	c8.4-2.6,16.4-6,24-10v0.1h80v-16h-56.5c6-5,11.5-10.6,16.5-16.5v0.5h72c8.8,0,16,7.2,16,16h-32v16h32v56h-51.2
	c-20.5,0-40.3,6-57.3,17.3l-3.6,2.4v40.6l3.6,2.4c17,11.3,36.8,17.3,57.3,17.3H440v56H104v16h336C440,472.8,432.8,480,424,480z
	 M440,328v48h-51.2c-15.9,0-31.3-4.3-44.8-12.4v-23.2c13.6-8.1,29-12.4,44.8-12.4H440z"/>
<rect x="360" y="344" class="st1" width="16" height="16"/>
</svg>
