<svg id="Слой_1" xmlns="http://www.w3.org/2000/svg" viewBox="0 0 56.7 56.7">
    <style>
        .st0{opacity:.3;fill:#9da7b0}.st1{fill:#0e64ed}
    </style>
    <path class="st0" d="M20.3 14.6v11.6c0 4.4 3.6 8 8 8s8-3.6 8-8V14.6c0-4.4-3.6-8-8-8-4.4-.1-8 3.5-8 8zm-1.8 0c0-5.4 4.4-9.8 9.8-9.8s9.8 4.4 9.8 9.8v11.6c0 5.4-4.4 9.8-9.8 9.8s-9.8-4.4-9.8-9.8V14.6z"/>
    <path class="st1" d="M27.5 11.9c0-.5.4-.9.9-.9s.9.4.9.9v3.6c0 .5-.4.9-.9.9s-.9-.4-.9-.9v-3.6z"/>
    <path class="st1" d="M28.3 49.8l3.8-3.8c.3-.3.9-.3 1.3 0 .3.3.3.9 0 1.3L29 51.7c-.2.2-.4.3-.6.3s-.5-.1-.6-.3l-4.5-4.5c-.3-.3-.3-.9 0-1.3.3-.3.9-.3 1.3 0l3.7 3.9z"/>
    <path class="st1" d="M28.3 44l3.8-3.8c.3-.3.9-.3 1.3 0 .3.3.3.9 0 1.3L29 45.9c-.2.2-.4.3-.6.3s-.5-.1-.6-.3l-4.5-4.5c-.3-.3-.3-.9 0-1.3.3-.3.9-.3 1.3 0l3.7 3.9z"/>
</svg>
