<?xml version="1.0" encoding="utf-8"?>
<!-- Generator: Adobe Illustrator 22.0.1, SVG Export Plug-In . SVG Version: 6.00 Build 0)  -->
<svg version="1.1" id="Capa_1" xmlns="http://www.w3.org/2000/svg" xmlns:xlink="http://www.w3.org/1999/xlink" x="0px" y="0px"
	 viewBox="0 0 496 496" style="enable-background:new 0 0 496 496;" xml:space="preserve">
<style type="text/css">
	.st0{fill:#A3D2FF;}
	.st1{fill:#073277;}
</style>
<g>
	<circle class="st0" cx="392" cy="248" r="104"/>
	<path class="st0" d="M112,120c-44.1,0-80,35.9-80,80v40h8c0-13.3,10.7-24,24-24c0-8.8,7.2-16,16-16h64c8.8,0,16,7.2,16,16
		c13.3,0,24,10.7,24,24h8v-40C192,155.9,156.1,120,112,120z"/>
</g>
<path class="st1" d="M392,208c8.8,0,16,7.2,16,16h16c0-14.9-10.2-27.3-24-30.9V176h-16v17.1c-13.8,3.6-24,16-24,30.9
	c0,17.6,14.4,32,32,32c8.8,0,16,7.2,16,16s-7.2,16-16,16s-16-7.2-16-16h-16c0,14.9,10.2,27.3,24,30.9V320h16v-17.1
	c13.8-3.6,24-16,24-30.9c0-17.6-14.4-32-32-32c-8.8,0-16-7.2-16-16S383.2,208,392,208z"/>
<path class="st1" d="M224,354.2c0-19-13.5-35.5-32.2-39.2l-47.8-9.6v-11.6c8-5.6,14.5-13.2,18.6-22.2c16.4-1.4,29.4-15,29.4-31.7
	c0-15.3-10.8-28.1-25.2-31.2c-3.1-9.7-12.1-16.8-22.8-16.8H80c-10.7,0-19.7,7.1-22.8,16.8C42.8,211.9,32,224.7,32,240
	c0,16.7,13,30.4,29.4,31.7c4.2,8.9,10.6,16.6,18.6,22.2v11.6L32.2,315C13.5,318.7,0,335.2,0,354.2V376h224V354.2z M176,240
	c0,6-3.4,11.2-8.3,14c0.2-2,0.3-3.9,0.3-6v-21.8C172.8,229,176,234.1,176,240z M48,240c0-5.9,3.2-11,8-13.8V248c0,2,0.1,4,0.3,6
	C51.4,251.2,48,246,48,240z M72,248v-32c0-4.4,3.6-8,8-8h64c4.4,0,8,3.6,8,8v32c0,22.1-17.9,40-40,40S72,270.1,72,248z M112,304
	c5.6,0,10.9-0.8,16-2.4v7l-16,16l-16-16v-7C101.1,303.2,106.4,304,112,304z M208,360H16v-5.8c0-11.4,8.1-21.3,19.3-23.5l50.1-10
	l26.6,26.6l26.6-26.6l50.1,10c11.2,2.2,19.3,12.1,19.3,23.5L208,360L208,360z"/>
<path class="st1" d="M384,472c0,4.4-3.6,8-8,8H128c-4.4,0-8-3.6-8-8v-54.6l42.8,36.7l10.4-12.1L112,389.5L50.8,442l10.4,12.1
	l42.8-36.7V472c0,13.2,10.8,24,24,24h248c13.2,0,24-10.8,24-24V368h-16V472z"/>
<path class="st1" d="M120,24c0-4.4,3.6-8,8-8h248c4.4,0,8,3.6,8,8v78.6l-42.8-36.7l-10.4,12.2l61.2,52.5l61.2-52.5l-10.4-12.2
	L400,102.6V24c0-13.2-10.8-24-24-24H128c-13.2,0-24,10.8-24,24v80h16V24z"/>
<rect x="440" y="240" class="st1" width="16" height="16"/>
<rect x="328" y="240" class="st1" width="16" height="16"/>
<rect x="272" y="32" class="st1" width="16" height="16"/>
<rect x="240" y="32" class="st1" width="16" height="16"/>
<rect x="208" y="32" class="st1" width="16" height="16"/>
<rect x="272" y="448" class="st1" width="16" height="16"/>
<rect x="240" y="448" class="st1" width="16" height="16"/>
<rect x="208" y="448" class="st1" width="16" height="16"/>
</svg>
