<?xml version="1.0" encoding="utf-8"?>
<!-- Generator: Adobe Illustrator 22.0.1, SVG Export Plug-In . SVG Version: 6.00 Build 0)  -->
<svg version="1.1" id="Capa_1" xmlns="http://www.w3.org/2000/svg" xmlns:xlink="http://www.w3.org/1999/xlink" x="0px" y="0px"
	 viewBox="0 0 493.8 493.8" style="enable-background:new 0 0 493.8 493.8;" xml:space="preserve">
<style type="text/css">
	.st0{fill:#A3D2FF;}
	.st1{fill:#073277;}
</style>
<g>
	<circle class="st0" cx="246.9" cy="142.9" r="88"/>
	<circle class="st0" cx="246.9" cy="350.9" r="88"/>
</g>
<path class="st1" d="M222.9,214.9h16v-16h16v16h16v-20.4c9.5-5.6,16-15.8,16-27.6c0-9.5-4.2-18.1-10.9-24c6.7-5.9,10.9-14.5,10.9-24
	c0-11.8-6.5-22-16-27.6V70.9h-16v16h-16v-16h-16v16h-16v112h16V214.9L222.9,214.9z M222.9,102.9h32c8.8,0,16,7.2,16,16
	s-7.2,16-16,16h-32V102.9L222.9,102.9z M222.9,150.9h32c8.8,0,16,7.2,16,16s-7.2,16-16,16h-32V150.9L222.9,150.9z"/>
<path class="st1" d="M238.9,310.9h16c8.8,0,16,7.2,16,16h16c0-17.6-14.4-32-32-32v-16h-16v16c-17.6,0-32,14.4-32,32s14.4,32,32,32
	h16c8.8,0,16,7.2,16,16s-7.2,16-16,16h-16c-8.8,0-16-7.2-16-16h-16c0,17.6,14.4,32,32,32v16h16v-16c17.6,0,32-14.4,32-32
	s-14.4-32-32-32h-16c-8.8,0-16-7.2-16-16S230.1,310.9,238.9,310.9z"/>
<rect x="86.9" y="238.9" class="st1" width="16" height="16"/>
<rect x="86.9" y="206.9" class="st1" width="16" height="16"/>
<path class="st1" d="M422.9,0L359,100.4c-5.2-13.6-12.7-26.3-22.7-37.5c-22.8-25.4-55.4-40-89.4-40h-104c-57.3,0-104,46.7-104,104
	v256H0.3l70.6,110.9l63.9-100.4c5.2,13.6,12.7,26.3,22.7,37.5c22.8,25.4,55.4,40,89.4,40h104c57.3,0,104-46.7,104-104v-256h38.6
	L422.9,0z M86.9,270.9v128h25.4L70.9,464l-41.4-65.1h25.4v-272c0-48.5,39.5-88,88-88h104c29.5,0,57.8,12.6,77.5,34.6
	c20,22.3,29.2,51.2,25.8,81.2c-5.3,47.7-43.7,86.2-91.5,91.5c-30,3.3-58.9-5.8-81.2-25.8c-22-19.7-34.6-48-34.6-77.5
	c0-28.2,11.1-54.6,31.2-74.3l-11.2-11.4c-23.2,22.8-36,53.2-36,85.7c0,34.1,14.6,66.7,40,89.4c6.3,5.6,13.1,10.5,20.2,14.7
	c-32.6,19-55.3,52.7-59.4,90.3c-1.7,15.7-0.4,31.1,3.6,45.6h-28.4v-112L86.9,270.9L86.9,270.9z M438.9,94.9v272
	c0,48.5-39.5,88-88,88h-104c-29.5,0-57.8-12.6-77.5-34.6c-20-22.3-29.2-51.2-25.8-81.2c4-36.4,28.2-68.7,62-83.5
	c17.2,6.3,35.9,8.8,55,6.6c9.6-1.1,18.9-3.4,27.7-6.6c38.1,16.5,62.6,53.6,62.6,95.4c0,28.2-11.1,54.6-31.2,74.3l11.2,11.4
	c23.2-22.8,36-53.2,36-85.7c0-43.6-23.2-82.8-60.2-104c32.2-18.6,55.2-51.9,59.4-90.3c1.7-15.7,0.4-31.1-3.6-45.6h28.4v112h16v-128
	h-25.4L422.9,30l41.4,65.1C464.3,94.9,438.9,94.9,438.9,94.9z"/>
<rect x="390.9" y="238.9" class="st1" width="16" height="16"/>
<rect x="390.9" y="270.9" class="st1" width="16" height="16"/>
<rect x="302.9" y="134.9" class="st1" width="16" height="16"/>
<rect x="174.9" y="134.9" class="st1" width="16" height="16"/>
<rect x="174.9" y="342.9" class="st1" width="16" height="16"/>
<rect x="302.9" y="342.9" class="st1" width="16" height="16"/>
</svg>
