<?xml version="1.0" encoding="utf-8"?>
<!-- Generator: Adobe Illustrator 22.0.1, SVG Export Plug-In . SVG Version: 6.00 Build 0)  -->
<svg version="1.1" id="Capa_1" xmlns="http://www.w3.org/2000/svg" xmlns:xlink="http://www.w3.org/1999/xlink" x="0px" y="0px"
	 viewBox="0 0 496 496" style="enable-background:new 0 0 496 496;" xml:space="preserve">
<style type="text/css">
	.st0{fill:#A3D2FF;}
	.st1{fill:#073277;}
</style>
<circle class="st0" cx="240" cy="208" r="88"/>
<path class="st1" d="M456,224h-96V0H120v224H40c-22.1,0-40,17.9-40,40v192c0,22.1,17.9,40,40,40h416c22.1,0,40-17.9,40-40V264
	C496,241.9,478.1,224,456,224z M136,16h208v384H136V16z M360,416V240h56v240H64V240h56v176H360z M16,456V264c0-13.2,10.8-24,24-24h8
	v240h-8C26.8,480,16,469.2,16,456z M480,456c0,13.2-10.8,24-24,24h-24V240h24c13.2,0,24,10.8,24,24V456z"/>
<rect x="448" y="336" class="st1" width="16" height="48"/>
<path class="st1" d="M240,184c4.4,0,8,3.6,8,8h16c0-10.4-6.7-19.2-16-22.5V152h-16v17.5c-9.3,3.3-16,12.1-16,22.5
	c0,13.2,10.8,24,24,24c4.4,0,8,3.6,8,8s-3.6,8-8,8s-8-3.6-8-8h-16c0,10.4,6.7,19.2,16,22.5V264h16v-17.5c9.3-3.3,16-12.1,16-22.5
	c0-13.2-10.8-24-24-24c-4.4,0-8-3.6-8-8S235.6,184,240,184z"/>
<polygon class="st1" points="168,328 152,328 152,384 208,384 208,368 168,368 "/>
<polygon class="st1" points="312,368 272,368 272,384 328,384 328,328 312,328 "/>
<polygon class="st1" points="152,88 168,88 168,48 208,48 208,32 152,32 "/>
<polygon class="st1" points="272,48 312,48 312,88 328,88 328,32 272,32 "/>
<path class="st1" d="M24,200c13.2,0,24-10.8,24-24c0-10.4-6.7-19.2-16-22.5V80H16v73.5C6.7,156.8,0,165.6,0,176
	C0,189.2,10.8,200,24,200z M24,168c4.4,0,8,3.6,8,8s-3.6,8-8,8s-8-3.6-8-8S19.6,168,24,168z"/>
<rect x="16" y="48" class="st1" width="16" height="16"/>
<path class="st1" d="M72,70.5V144h16V70.5c9.3-3.3,16-12.1,16-22.5c0-13.2-10.8-24-24-24S56,34.8,56,48C56,58.4,62.7,67.2,72,70.5z
	 M80,40c4.4,0,8,3.6,8,8s-3.6,8-8,8s-8-3.6-8-8S75.6,40,80,40z"/>
<rect x="72" y="160" class="st1" width="16" height="16"/>
<path class="st1" d="M464,200c13.2,0,24-10.8,24-24c0-10.4-6.7-19.2-16-22.5V80h-16v73.5c-9.3,3.3-16,12.1-16,22.5
	C440,189.2,450.8,200,464,200z M464,168c4.4,0,8,3.6,8,8s-3.6,8-8,8s-8-3.6-8-8S459.6,168,464,168z"/>
<rect x="456" y="48" class="st1" width="16" height="16"/>
<path class="st1" d="M392,70.5V144h16V70.5c9.3-3.3,16-12.1,16-22.5c0-13.2-10.8-24-24-24s-24,10.8-24,24
	C376,58.4,382.7,67.2,392,70.5z M400,40c4.4,0,8,3.6,8,8s-3.6,8-8,8s-8-3.6-8-8S395.6,40,400,40z"/>
<rect x="392" y="160" class="st1" width="16" height="16"/>
<rect x="280" y="200" class="st1" width="16" height="16"/>
<rect x="184" y="200" class="st1" width="16" height="16"/>
</svg>
