<?xml version="1.0" encoding="utf-8"?>
<!-- Generator: Adobe Illustrator 22.0.1, SVG Export Plug-In . SVG Version: 6.00 Build 0)  -->
<svg version="1.1" id="Capa_1" xmlns="http://www.w3.org/2000/svg" xmlns:xlink="http://www.w3.org/1999/xlink" x="0px" y="0px"
	 viewBox="0 0 496 496" style="enable-background:new 0 0 496 496;" xml:space="preserve">
<style type="text/css">
	.st0{fill:#A3D2FF;}
	.st1{fill:#073277;}
</style>
<circle class="st0" cx="184" cy="247.9" r="104"/>
<path class="st1" d="M488.2,302.2L441.8,269c3.9-6.2,6.2-13.4,6.2-21.2s-2.3-15-6.2-21.2l46.4-33.2c4.9-3.5,7.8-9.1,7.8-15.1
	c0-10.2-8.3-18.6-18.6-18.6H413l-45,38.6v-124l-86.5-34.6h-195L0,74.4v143c0,111,74.8,208.9,181.9,238.2l2.1,0.6l2.1-0.6
	c82-22.4,147.1-86.2,171.4-167.3l55.5,47.6h64.4c10.2,0,18.6-8.3,18.6-18.6C496,311.3,493.1,305.7,488.2,302.2z M216,271.9v-48h192
	c10.4,0,19.2,6.7,22.5,16H232v16h198.5c-3.3,9.3-12.1,16-22.5,16H216z M176,367.9v35.2C99,373.8,48,300.6,48,217.4V109.2l52.8-21.4
	H176v40h16v-40h75.2l52.8,21.4v98.6h-76.3c-13.3-19.8-35.7-32-59.7-32c-39.7,0-72,32.3-72,72s32.3,72,72,72c24,0,46.4-12.2,59.7-32
	H307c-20.2,53.1-62.2,95.1-115,115.3v-35.3L176,367.9L176,367.9z M163.2,249.5l-1.2-1.6l1.2-1.6c8.9-11.9,22.3-19.6,36.8-21.8v46.7
	C185.5,269.1,172.1,261.3,163.2,249.5z M208,207.9c-22.5,0-44.1,10.8-57.6,28.8l-8.4,11.2l8.4,11.2c13.5,18,35.1,28.8,57.6,28.8
	h15.1c-10.3,10.1-24.4,16-39.1,16c-30.9,0-56-25.1-56-56s25.1-56,56-56c14.8,0,28.8,5.9,39.1,16H208L208,207.9z M419,175.9h58.5
	c1.4,0,2.6,1.2,2.6,2.6c0,0.8-0.4,1.6-1.1,2.1L430.7,215c-3-2.1-6.3-3.6-9.8-4.8l15.9-11.9l-9.6-12.8l-29.9,22.4h-15.7L419,175.9z
	 M184,439.6c-99-28-168-119-168-222.1V85.3l73.5-29.4h188.9L352,85.3v122.6h-16V98.5l-65.7-26.6H97.7L32,98.5v119
	c0,93.9,60.1,176.2,149.6,204.7l2.4,0.8l2.4-0.8c64.3-20.5,115.3-70.5,137.5-134.3h16.9C317.4,361,258.3,418.5,184,439.6z
	 M477.4,319.9H419l-37.3-32h15.7l29.9,22.4l9.6-12.8L421,285.6c3.5-1.2,6.8-2.7,9.8-4.8l48.3,34.5c0.7,0.5,1.1,1.2,1.1,2.1
	C480,318.7,478.8,319.9,477.4,319.9z"/>
</svg>
