<?xml version="1.0" encoding="utf-8"?>
<!-- Generator: Adobe Illustrator 22.0.1, SVG Export Plug-In . SVG Version: 6.00 Build 0)  -->
<svg version="1.1" id="Capa_1" xmlns="http://www.w3.org/2000/svg" xmlns:xlink="http://www.w3.org/1999/xlink" x="0px" y="0px"
	 viewBox="0 0 496 496" style="enable-background:new 0 0 496 496;" xml:space="preserve">
<style type="text/css">
	.st0{fill:#A3D2FF;}
	.st1{fill:#073277;}
</style>
<circle class="st0" cx="248" cy="232" r="88"/>
<path class="st1" d="M224,304h16v-16h16v16h16v-20.4c9.5-5.6,16-15.8,16-27.6c0-9.5-4.2-18.1-10.9-24c6.7-5.9,10.9-14.5,10.9-24
	c0-11.8-6.5-22-16-27.6V160h-16v16h-16v-16h-16v16h-16v112h16V304z M224,192h32c8.8,0,16,7.2,16,16s-7.2,16-16,16h-32V192z M224,240
	h32c8.8,0,16,7.2,16,16c0,8.8-7.2,16-16,16h-32V240z"/>
<path class="st1" d="M480,416V168c0-22.1-17.9-40-40-40H337.5c-2.6-2.2-5.2-4.2-7.9-6.2l28.3-28.3C364.3,87,368,78.1,368,69v-2.3
	c0-19.1-15.6-34.7-34.7-34.7c-10.9,0-21.2,5.2-27.7,13.9l-11.2,14.9c-1.5,2-3.9,3.2-6.4,3.2c-4.4,0-8-3.6-8-8V32
	c0-17.6-14.4-32-32-32s-32,14.4-32,32v24c0,4.4-3.6,8-8,8c-2.5,0-4.9-1.2-6.4-3.2l-11.2-14.9c-6.5-8.7-16.9-13.9-27.7-13.9
	C143.6,32,128,47.5,128,66.7V69c0,9.1,3.7,18.1,10.2,24.5l28.3,28.3c-2.7,2-5.4,4-7.9,6.2H56c-22.1,0-40,17.9-40,40v248H0v40
	c0,22.1,17.9,40,40,40h416c22.1,0,40-17.9,40-40v-40H480L480,416z M144,69v-2.3c0-10.3,8.4-18.7,18.7-18.7c5.8,0,11.4,2.8,14.9,7.5
	l11.2,14.9c4.5,6,11.7,9.6,19.2,9.6c13.2,0,24-10.8,24-24V32c0-8.8,7.2-16,16-16s16,7.2,16,16v24c0,13.2,10.8,24,24,24
	c7.5,0,14.7-3.6,19.2-9.6l11.2-14.9c3.5-4.7,9.1-7.5,14.9-7.5c10.3,0,18.7,8.4,18.7,18.7V69c0,4.9-2,9.7-5.5,13.2L316.7,112H179.3
	l-29.8-29.8C146,78.7,144,73.9,144,69z M186.2,128h123.6c36.5,21,58.2,59.7,58.2,104c0,66.2-53.8,120-120,120s-120-53.8-120-120
	C128,187.7,149.7,149.1,186.2,128z M32,168c0-13.2,10.8-24,24-24h86.8c-4.2,5-8,10.4-11.3,16H64c-8.8,0-16,7.2-16,16v224h16V176
	h59.3c-7.3,17.1-11.3,36.1-11.3,56c0,75,61,136,136,136s136-61,136-136c0-19.9-4-38.9-11.3-56H432v224h16V176c0-8.8-7.2-16-16-16
	h-67.5c-3.4-5.6-7.2-11-11.3-16H440c13.2,0,24,10.8,24,24v248H32V168z M192,432h112v8c0,4.4-3.6,8-8,8h-96c-4.4,0-8-3.6-8-8V432z
	 M480,456c0,13.2-10.8,24-24,24H40c-13.2,0-24-10.8-24-24v-24h160v8c0,13.2,10.8,24,24,24h96c13.2,0,24-10.8,24-24v-8h160V456z"/>
<rect x="48" y="448" class="st1" width="16" height="16"/>
<rect x="80" y="448" class="st1" width="16" height="16"/>
<rect x="112" y="448" class="st1" width="16" height="16"/>
<path class="st1" d="M144,232c0,29.5,12.6,57.8,34.7,77.5l10.7-11.9C170.7,280.9,160,257,160,232H144z"/>
<rect x="144" y="200" class="st1" width="16" height="16"/>
</svg>
