<?xml version="1.0" encoding="utf-8"?>
<!-- Generator: Adobe Illustrator 22.0.1, SVG Export Plug-In . SVG Version: 6.00 Build 0)  -->
<svg version="1.1" id="Capa_1" xmlns="http://www.w3.org/2000/svg" xmlns:xlink="http://www.w3.org/1999/xlink" x="0px" y="0px"
	 viewBox="0 0 496 496" style="enable-background:new 0 0 496 496;" xml:space="preserve">
<style type="text/css">
	.st0{fill:#A3D2FF;}
	.st1{fill:#073277;}
</style>
<g>
	<path class="st0" d="M327,238.4h-94c-0.6,3.1-1,6.4-1,9.6c0,26.5,21.5,48,48,48s48-21.5,48-48C328,244.8,327.7,241.5,327,238.4z"/>
	<path class="st0" d="M111.8,234.7l-40.3-6.1C62,234.3,56,244.8,56,256c0,17.6,14.4,32,32,32s32-14.4,32-32
		C120,248.1,117.1,240.5,111.8,234.7z"/>
	<path class="st0" d="M416,432c-26.5,0-48-21.5-48-48s21.5-48,48-48s48,21.5,48,48S442.5,432,416,432z"/>
	<path class="st0" d="M240,464c-17.6,0-32-14.4-32-32s14.4-32,32-32s32,14.4,32,32S257.6,464,240,464z"/>
	<path class="st0" d="M64,432c-17.6,0-32-14.4-32-32s14.4-32,32-32s32,14.4,32,32S81.6,432,64,432z"/>
</g>
<path class="st1" d="M224,216h16v-16h16v16h16v-20.4c9.5-5.6,16-15.8,16-27.6c0-9.5-4.2-18.1-10.9-24c6.7-5.9,10.9-14.5,10.9-24
	c0-11.8-6.5-22-16-27.6V72h-16v16h-16V72h-16v16h-16v112h16V216z M224,104h32c8.8,0,16,7.2,16,16s-7.2,16-16,16h-32V104z M224,152
	h32c8.8,0,16,7.2,16,16s-7.2,16-16,16h-32V152z"/>
<path class="st1" d="M200,248c0,44.1,35.9,80,80,80s80-35.9,80-80h32c44.1,0,80-35.9,80-80c0-43.3-34.6-78.7-77.5-80
	C381,50,344.7,24,304,24c-15.9,0-31.5,4-45.5,11.5C240.3,13.2,213,0,184,0c-50.6,0-92.2,39.4-95.7,89.6C51.2,96.9,24,129.5,24,168
	c0,17.4,5.7,33.5,15.2,46.7C29.4,226.2,24,240.7,24,256c0,35.3,28.7,64,64,64s64-28.7,64-64c0-2.7-0.2-5.4-0.6-8H200z M280,312
	c-35.3,0-64-28.7-64-64h128C344,283.3,315.3,312,280,312z M96.9,104.4l7.1-1.2V96c0-44.1,35.9-80,80-80c26.2,0,50.8,12.9,65.8,34.6
	l4.4,6.4l6.5-4.2c13-8.4,27.9-12.8,43.3-12.8c35.6,0,67.3,24,76.9,58.3l1.7,6.1l7.7-0.4c0.5,0,1.1-0.1,1.6-0.1c35.3,0,64,28.7,64,64
	s-28.7,64-64,64H104c-35.3,0-64-28.7-64-64C40,135.3,64.5,108,96.9,104.4z M136,256c0,26.5-21.5,48-48,48s-48-21.5-48-48
	c0-10.7,3.5-20.8,10-29.2c14.3,13.1,33.2,21.2,54,21.2h31.3C135.7,250.6,136,253.3,136,256z"/>
<path class="st1" d="M104,216v-16c-17.6,0-32-14.4-32-32s14.4-32,32-32v-16c-26.5,0-48,21.5-48,48S77.5,216,104,216z"/>
<path class="st1" d="M184,48V32c-35.3,0-64,28.7-64,64h16C136,69.5,157.5,48,184,48z"/>
<path class="st1" d="M424,168h16c0-26.5-21.5-48-48-48v16C409.6,136,424,150.4,424,168z"/>
<path class="st1" d="M416,304c-44.1,0-80,35.9-80,80s35.9,80,80,80s80-35.9,80-80S460.1,304,416,304z M416,448
	c-35.3,0-64-28.7-64-64s28.7-64,64-64s64,28.7,64,64S451.3,448,416,448z"/>
<path class="st1" d="M240,368c-35.3,0-64,28.7-64,64s28.7,64,64,64s64-28.7,64-64S275.3,368,240,368z M240,480
	c-26.5,0-48-21.5-48-48s21.5-48,48-48s48,21.5,48,48S266.5,480,240,480z"/>
<path class="st1" d="M64,336c-35.3,0-64,28.7-64,64s28.7,64,64,64s64-28.7,64-64S99.3,336,64,336z M64,448c-26.5,0-48-21.5-48-48
	s21.5-48,48-48s48,21.5,48,48S90.5,448,64,448z"/>
<rect x="304" y="136" class="st1" width="16" height="16"/>
<rect x="176" y="136" class="st1" width="16" height="16"/>
</svg>
